<?xml version="1.0" encoding="utf-8"?>

<!DOCTYPE svg PUBLIC "-//W3C//DTD SVG 1.1//EN" "http://www.w3.org/Graphics/SVG/1.1/DTD/svg11.dtd">
<svg version="1.1" xmlns="http://www.w3.org/2000/svg" xmlns:xlink="http://www.w3.org/1999/xlink" viewBox="0 0 32 32">
<path fill="#444" d="M21.333 15.926v-2.593h-4.667c0.853 0 1.706-0.325 2.357-0.976 1.302-1.302 1.302-3.412 0-4.714s-3.412-1.302-4.714 0c-0.549 0.549-0.899 1.238-0.985 1.954 0.178-1.297-0.264-2.664-1.261-3.661-1.692-1.692-4.436-1.692-6.128 0s-1.692 4.436 0 6.128c0.846 0.846 1.955 1.269 3.064 1.269h-4.333v9.333h16.667v-2.593l6 2.593v-9.333l-6 2.593zM15.795 9.128c0.481-0.481 1.262-0.481 1.743 0s0.481 1.262 0 1.743-1.262 0.481-1.743 0-0.481-1.262 0-1.743zM7.867 10.133c-0.626-0.626-0.626-1.64 0-2.266s1.64-0.626 2.266 0c0.626 0.626 0.626 1.64 0 2.266s-1.64 0.626-2.266 0zM20 21.333h-14v-6.667h14v6.667z"></path>
</svg>
