<?xml version="1.0" encoding="utf-8"?>

<!DOCTYPE svg PUBLIC "-//W3C//DTD SVG 1.1//EN" "http://www.w3.org/Graphics/SVG/1.1/DTD/svg11.dtd">
<svg version="1.1" xmlns="http://www.w3.org/2000/svg" xmlns:xlink="http://www.w3.org/1999/xlink" viewBox="0 0 32 32">
<path fill="#444" d="M20.936 13.214l-0.645 0.167-0.667-2.582 0.645-0.167 0.667 2.582zM21.561 10.299l-0.645 0.167 0.667 2.582 0.645-0.167-0.667-2.582zM22.852 9.966l-0.645 0.167 0.667 2.582 0.645-0.167-0.667-2.582zM22.185 7.384l-3.227 0.833 0.333 1.291 3.227-0.833-0.333-1.291zM23.852 13.839l-3.227 0.833 2.333 9.037 3.227-0.833-2.333-9.037zM13.333 10.667v2.667h0.667v-2.667h-0.667zM14.667 10.667v2.667h0.667v-2.667h-0.667zM12.667 8v1.333h3.333v-1.333h-3.333zM12.667 14.667v9.333h3.333v-9.333h-3.333zM9.333 10.667v2.667h0.667v-2.667h-0.667zM8 8v1.333h3.333v-1.333h-3.333zM8 14.667v9.333h3.333v-9.333h-3.333z"></path>
</svg>
