<?xml version="1.0" encoding="utf-8"?>

<!DOCTYPE svg PUBLIC "-//W3C//DTD SVG 1.1//EN" "http://www.w3.org/Graphics/SVG/1.1/DTD/svg11.dtd">
<svg version="1.1" xmlns="http://www.w3.org/2000/svg" xmlns:xlink="http://www.w3.org/1999/xlink" viewBox="0 0 32 32">
<path fill="#444" d="M24 10.667h4v2.667h-2v1.333h2v2.667h-2.667v1.333h2.667v2.667h-6.667v1.333h-4.667v-10.667l3.333 3.333-2 4 4.667-1.333c0-0.035 0-6 0-6s-1.221-1.221-2.667-2.667h4v1.333zM11.022 22.667c0.46-0.798 1.32-1.333 2.311-1.333 0.8 0 1.51 0.351 2 0.908v-12.908h-2.667v1.333h-6v2.667h6v1.333h-6v2.667h6v1.333h-6v2.667h2.667v1.333h1.689z"></path>
</svg>
