<?xml version="1.0" encoding="utf-8"?>

<!DOCTYPE svg PUBLIC "-//W3C//DTD SVG 1.1//EN" "http://www.w3.org/Graphics/SVG/1.1/DTD/svg11.dtd">
<svg version="1.1" xmlns="http://www.w3.org/2000/svg" xmlns:xlink="http://www.w3.org/1999/xlink" viewBox="0 0 32 32">
<path fill="#444" d="M12.667 10.667v-1.333h-8.667v13.333h5.333v-1.333h-2.667v-2.667h6v-1.333h-6v-2.667h6v-1.333h-6v-2.667h6zM26 13.333v1.333h2v-1.333h-2zM24 9.333v1.333h4v-1.333h-4zM21.333 21.333v1.333h6.667v-1.333h-6.667zM25.333 17.333v1.333h2.667v-1.333h-2.667zM18 19.333l2-4-3.333-3.333v11.333c0 1.892-1.549 3.333-3.333 3.333-1.477 0-2.667-1.189-2.667-2.667s1.189-2.667 2.667-2.667c0.8 0 1.51 0.351 2 0.908v-17.575c0.034 0.034 7.333 7.333 7.333 7.333s0 5.965 0 6l-4.667 1.333z"></path>
</svg>
