<?xml version="1.0" encoding="utf-8"?>

<!DOCTYPE svg PUBLIC "-//W3C//DTD SVG 1.1//EN" "http://www.w3.org/Graphics/SVG/1.1/DTD/svg11.dtd">
<svg version="1.1" xmlns="http://www.w3.org/2000/svg" xmlns:xlink="http://www.w3.org/1999/xlink" viewBox="0 0 32 32">
<path fill="#444" d="M16 8c-4.717 0-8.298 1.251-12 3.333v10.244c3.981-2.211 7.467-3.333 12-3.333v5.756h6c4 0 6-2.774 6-5.723v-3.234c0-5.526-6.501-7.043-12-7.043zM25.097 21.844c0.33-1.006 0.094-1.814-0.323-2.462-1.286-2.002-5.504-2.471-8.775-2.471-3.626 0-6.907 0.693-10.604 2.472l-0.002-7.219c3.454-1.852 6.583-2.83 10.604-2.83 4.595 0 10.668 1.097 10.668 5.71v3.234c0 1.418-0.54 2.716-1.569 3.567zM11.333 15.991c-1.347 0.251-2.666 0.619-4 1.115v-4.439c1.369-0.649 2.68-1.118 4-1.445v4.769zM18 15.637c-0.604-0.037-1.27-0.060-2-0.060-0.681 0-1.346 0.024-2 0.072v-4.884c0.672-0.066 1.356-0.098 2.063-0.098 0.665 0 1.314 0.024 1.937 0.071v4.899zM24.667 17.412c-0.817-0.573-1.9-1.014-3.241-1.317-0.22-0.050-0.473-0.101-0.759-0.152v-4.832c0.724 0.156 1.379 0.351 1.95 0.583 0.899 0.366 1.59 0.818 2.050 1.345v4.373z"></path>
</svg>
