<?xml version="1.0" encoding="utf-8"?>

<!DOCTYPE svg PUBLIC "-//W3C//DTD SVG 1.1//EN" "http://www.w3.org/Graphics/SVG/1.1/DTD/svg11.dtd">
<svg version="1.1" xmlns="http://www.w3.org/2000/svg" xmlns:xlink="http://www.w3.org/1999/xlink" viewBox="0 0 32 32">
<path fill="#444" d="M17.704 26.371l-1.605-1.605c2.016-2.359 3.234-5.42 3.234-8.766s-1.218-6.408-3.234-8.766l1.605-1.605c2.74 2.74 4.296 6.434 4.296 10.371 0 3.943-1.559 7.635-4.296 10.371zM18 16c0-2.822-0.968-5.589-2.846-7.82l-1.688 1.688c1.179 1.752 1.867 3.862 1.867 6.133s-0.688 4.381-1.867 6.133l1.688 1.688c1.77-2.103 2.846-4.828 2.846-7.82zM11.333 16c0 1.18-0.241 2.304-0.675 3.325l1.845 1.845c0.957-1.508 1.496-3.28 1.496-5.17 0-1.888-0.539-3.661-1.496-5.17l-1.845 1.845c0.435 1.021 0.675 2.145 0.675 3.325z"></path>
</svg>
