<?xml version="1.0" encoding="utf-8"?>

<!DOCTYPE svg PUBLIC "-//W3C//DTD SVG 1.1//EN" "http://www.w3.org/Graphics/SVG/1.1/DTD/svg11.dtd">
<svg version="1.1" xmlns="http://www.w3.org/2000/svg" xmlns:xlink="http://www.w3.org/1999/xlink" viewBox="0 0 32 32">
<path fill="#444" d="M23.333 21.333l-5.133-4.491c0.713-0.987 1.133-2.199 1.133-3.509 0-3.314-2.686-6-6-6s-6 2.686-6 6c0 3.314 2.686 6 6 6 1.31 0 2.522-0.42 3.509-1.133l4.491 5.133 2-2zM13.333 18c-2.579 0-4.667-2.087-4.667-4.667s2.087-4.667 4.667-4.667c2.579 0 4.667 2.087 4.667 4.667s-2.087 4.667-4.667 4.667zM13.333 16.667v-1.333c1.103 0 3.333-0.897 3.333-2v0c0 1.841-1.492 3.333-3.333 3.333z"></path>
</svg>
