<?xml version="1.0" encoding="utf-8"?>

<!DOCTYPE svg PUBLIC "-//W3C//DTD SVG 1.1//EN" "http://www.w3.org/Graphics/SVG/1.1/DTD/svg11.dtd">
<svg version="1.1" xmlns="http://www.w3.org/2000/svg" xmlns:xlink="http://www.w3.org/1999/xlink" viewBox="0 0 32 32">
<path fill="#444" d="M16 6c-5.523 0-10 4.477-10 10s4.477 10 10 10 10-4.477 10-10-4.477-10-10-10zM16 24.667c-4.782 0-8.667-3.873-8.667-8.667 0-0.759 0.096-1.502 0.287-2.222h0.602l1.111 1.667-1.667 0.556 2.222 3.333h1.111l1.111 1.544v0.679l1.111 1.667h1.111l-1.111-2.222 0.555-1.111v-2.778l-1.667-2.222-1.111 0.555-0.556-1.111 2.222-1.111-0.556-1.667 1.667-1.111h-2.222l-0.556-0.555 0.924-1.54c1.22-0.652 2.607-1.016 4.076-1.016 0.057 0 0.114 0.001 0.17 0.002l1.496 1.998-2.222 1.111 1.667 1.111-1.111 0.555 0.556 1.667h0.555l0.556-1.111h1.65l0.572 0.556h1.111l-1.111 1.111h-3.333l-1.111 1.111v1.111l1.111 1.111h1.111v2.222l1.111 1.667h0.556l1.111-2.222v-1.667l1.663-1.667-1.108-0.556 1.667-1.667 1.996 2.495c-0.142 4.654-3.96 8.394-8.662 8.394z"></path>
</svg>
