<?xml version="1.0" encoding="utf-8"?>

<!DOCTYPE svg PUBLIC "-//W3C//DTD SVG 1.1//EN" "http://www.w3.org/Graphics/SVG/1.1/DTD/svg11.dtd">
<svg version="1.1" xmlns="http://www.w3.org/2000/svg" xmlns:xlink="http://www.w3.org/1999/xlink" viewBox="0 0 32 32">
<path fill="#444" d="M15.998 9.333c-4.021 0-7.149 0.978-10.604 2.83l0.002 7.219c3.697-1.778 6.978-2.472 10.604-2.472 3.271 0 7.489 0.469 8.775 2.471 0.416 0.648 0.652 1.457 0.322 2.462 1.030-0.851 1.569-2.149 1.569-3.567v-3.234c0-4.613-6.074-5.71-10.668-5.71zM11.333 15.991c-1.347 0.251-2.666 0.619-4 1.115v-4.439c1.369-0.649 2.68-1.118 4-1.445v4.769zM18 15.637c-0.604-0.037-1.27-0.060-2-0.060-0.681 0-1.346 0.024-2 0.071v-4.884c0.672-0.066 1.356-0.098 2.063-0.098 0.665 0 1.314 0.024 1.937 0.071v4.899zM24.667 17.412c-0.817-0.573-1.9-1.014-3.241-1.317-0.22-0.050-0.473-0.101-0.759-0.152v-4.832c0.724 0.156 1.379 0.351 1.949 0.583 0.9 0.366 1.59 0.818 2.051 1.345v4.373z"></path>
</svg>
