<?xml version="1.0" encoding="utf-8"?>

<!DOCTYPE svg PUBLIC "-//W3C//DTD SVG 1.1//EN" "http://www.w3.org/Graphics/SVG/1.1/DTD/svg11.dtd">
<svg version="1.1" xmlns="http://www.w3.org/2000/svg" xmlns:xlink="http://www.w3.org/1999/xlink" viewBox="0 0 32 32">
<path fill="#444" d="M22.185 7.384l0.333 1.291-3.227 0.833-0.333-1.291 3.227-0.833zM23.852 13.839v0l2.333 9.037-3.227 0.833-2.333-9.037 3.227-0.833zM23.143 5.759l-5.809 1.5 4.667 18.074 5.809-1.5-4.667-18.074zM22.873 12.714l-0.667-2.582 0.645-0.167 0.667 2.582-0.645 0.167zM21.582 13.048l-0.667-2.582 0.645-0.167 0.667 2.582-0.645 0.167zM20.291 13.381l-0.667-2.582 0.645-0.167 0.667 2.582-0.645 0.167zM6.667 6.667v18.667h10.667v-18.667h-10.667zM11.333 24h-3.333v-9.333h3.333v9.333zM9.333 13.333v-2.667h0.667v2.667h-0.667zM11.333 9.333h-3.333v-1.333h3.333v1.333zM16 24h-3.333v-9.333h3.333v9.333zM13.333 13.333v-2.667h0.667v2.667h-0.667zM14.667 13.333v-2.667h0.667v2.667h-0.667zM16 9.333h-3.333v-1.333h3.333v1.333z"></path>
</svg>
