<?xml version="1.0" encoding="utf-8"?>

<!DOCTYPE svg PUBLIC "-//W3C//DTD SVG 1.1//EN" "http://www.w3.org/Graphics/SVG/1.1/DTD/svg11.dtd">
<svg version="1.1" xmlns="http://www.w3.org/2000/svg" xmlns:xlink="http://www.w3.org/1999/xlink" viewBox="0 0 32 32">
<path fill="#444" d="M8.667 6.667v18.667h14.667v-18.667h-14.667zM8.667 12l0.444-1.333h0.889l1.333-4h2l2 8h-1.333l-0.667-2.667h-2.444l-0.889 2.667h-1.333l0.889-2.667h-0.889zM18 25.333h-9.333v-2.667h9.333v2.667zM23.333 25.333h-2.667v-2.667h2.667v2.667zM23.333 20h-14.667v-2.667h14.667v2.667zM23.333 14.667h-6v-2.667h6v2.667zM23.333 9.333h-6v-2.667h6v2.667zM13 10.667h-1.667l0.952-2.857 0.714 2.857z"></path>
</svg>
