<?xml version="1.0" encoding="utf-8"?>

<!DOCTYPE svg PUBLIC "-//W3C//DTD SVG 1.1//EN" "http://www.w3.org/Graphics/SVG/1.1/DTD/svg11.dtd">
<svg version="1.1" xmlns="http://www.w3.org/2000/svg" xmlns:xlink="http://www.w3.org/1999/xlink" viewBox="0 0 32 32">
<path fill="#444" d="M10.44 17.898l3.863 0.217-0.193 1.87-3.864-0.087 0.194-2zM9.237 16.495l-0.455 4.703 6.53 0.147 0.463-4.483-6.537-0.367zM25.83 8.671l-0.181-1.929-5.73 1.205-12.378-1.516-0.407 4.205-4.467 0.939 3.174 12.425h21.427l1.95-14.914-3.387-0.415zM26.097 22.667h-18.788l1.427-14.746 18.984 2.325-1.624 12.42zM23.655 20.127l-0.182 1.402 1.398 0.031 0.181-1.386-1.397-0.047zM9.54 13.359l-0.152 1.568 16.207 1.088 0.181-1.385-16.236-1.271zM17.1 16.933l-0 0.002-0.143 1.48 8.276 0.371 0.181-1.386-8.314-0.468zM16.8 19.9l-0.143 1.475 5.416 0.122 0.184-1.418-5.457-0.179zM12.394 8.93l-1.017-0.113-0.886 1.937-0.457-0.040-0.291 0.637 0.457 0.040-0.595 1.304 0.689 0.054 0.592-1.298 1.256 0.109 0.218 1.35 0.685 0.054-0.651-4.034zM11.176 10.814l0.583-1.275 0.057 0.005 0.217 1.344-0.857-0.075zM19.73 10.378l-0.31 2.349 6.536 0.511 0.282-2.135-6.507-0.726z"></path>
</svg>
