<?xml version="1.0" encoding="utf-8"?>

<!DOCTYPE svg PUBLIC "-//W3C//DTD SVG 1.1//EN" "http://www.w3.org/Graphics/SVG/1.1/DTD/svg11.dtd">
<svg version="1.1" xmlns="http://www.w3.org/2000/svg" xmlns:xlink="http://www.w3.org/1999/xlink" viewBox="0 0 32 32">
<path fill="#444" d="M28 4l-24 24 9.333-6.667c3.824 0 7.753-0.789 10.646-3.34l-3.976-1.327h5.25c2.734-3.366 3.488-8.743 2.747-12.667zM21.013 18.409c-2.146 1.113-4.649 1.531-7.122 1.585l2.97-2.97 4.152 1.385zM24.593 15.333h-6.041l1.333-1.333h5.516c-0.242 0.472-0.511 0.917-0.809 1.333zM25.983 12.667h-4.765l2-2h3.329c-0.145 0.702-0.335 1.377-0.564 2zM26.765 9.333h-2.213l2.349-2.349c0.003 0.77-0.040 1.565-0.136 2.349z"></path>
</svg>
