<?xml version="1.0" encoding="utf-8"?>

<!DOCTYPE svg PUBLIC "-//W3C//DTD SVG 1.1//EN" "http://www.w3.org/Graphics/SVG/1.1/DTD/svg11.dtd">
<svg version="1.1" xmlns="http://www.w3.org/2000/svg" xmlns:xlink="http://www.w3.org/1999/xlink" viewBox="0 0 32 32">
<path fill="#444" d="M21.333 10v-3.333l-1.333 0.296v-3.63l-12 5.333v16l2.667 1.333h12v-16h-1.333zM10.667 8.941l8-3.556v13.082l-8 3.556v-13.082zM10.667 23.671v-0.19l9.333-4.148v2.264l-9.333 2.074zM21.333 24.667h-9l9-2v2zM14.833 8l-1.5 0.667-1 3.444-0.667 0.296-0.333 1.148 0.667-0.296-0.667 2.296 1-0.444 0.667-2.296 1.833-0.815 0.5 1.778 1-0.444-1.5-5.333zM13.333 11.667l0.714-2.46 0.536 1.905-1.25 0.556z"></path>
</svg>
