<?xml version="1.0" encoding="utf-8"?>

<!DOCTYPE svg PUBLIC "-//W3C//DTD SVG 1.1//EN" "http://www.w3.org/Graphics/SVG/1.1/DTD/svg11.dtd">
<svg version="1.1" xmlns="http://www.w3.org/2000/svg" xmlns:xlink="http://www.w3.org/1999/xlink" viewBox="0 0 32 32">
<path fill="#444" d="M8.736 7.921l-1.427 14.746h18.788l1.624-12.42-18.984-2.325zM9.743 11.352l0.291-0.637 0.457 0.040 0.886-1.937 1.017 0.113 0.651 4.034-0.685-0.054-0.218-1.35-1.256-0.109-0.592 1.298-0.689-0.054 0.595-1.304-0.457-0.040zM15.311 21.345l-6.53-0.147 0.455-4.703 6.537 0.367-0.463 4.483zM22.073 21.497l-5.416-0.122 0.143-1.475 5.457 0.179-0.184 1.418zM24.871 21.56l-1.398-0.031 0.182-1.402 1.397 0.047-0.181 1.386zM25.233 18.787l-8.276-0.371 0.143-1.48 0-0.002 8.314 0.468-0.181 1.386zM25.596 16.015l-16.207-1.088 0.152-1.568 16.236 1.271-0.181 1.385zM25.956 13.239l-6.536-0.511 0.31-2.349 6.507 0.726-0.282 2.135zM14.304 18.115l-0.193 1.87-3.864-0.087 0.193-2 3.863 0.217zM12.033 10.888l-0.857-0.075 0.583-1.275 0.057 0.005 0.217 1.344z"></path>
</svg>
