<?xml version="1.0" encoding="utf-8"?>

<!DOCTYPE svg PUBLIC "-//W3C//DTD SVG 1.1//EN" "http://www.w3.org/Graphics/SVG/1.1/DTD/svg11.dtd">
<svg version="1.1" xmlns="http://www.w3.org/2000/svg" xmlns:xlink="http://www.w3.org/1999/xlink" viewBox="0 0 32 32">
<path fill="#444" d="M19.333 24h7.333v-13.333h-7.333v13.333zM25.333 21.333l-1.333 1.333v-1.333h-1.333v-0.667l1.333-1.333h0.667v0.667l0.667-0.667v2zM20 12.667h2.667l0.667-0.667h0.667l0.667 0.667h0.667l0.667 0.667-0.667 0.667-0.667-0.667-0.667 0.667 0.667 0.667-1.333 1.333 0.667 2-0.667 0.667-1.333-1.333v1.333h-1.333l-0.667-0.667v-5.333zM14 8.333l4 2v2.667l-1.333-1.333-1.333 0.667 1.333 0.667v0.667l-1.333-0.667-0.667 0.333v1.333l0.667 0.333h1.333l1.333 2v1.333l-1.333-2-2-1v2l0.667 0.333v1.333l0.667 1.667 0.667 0.333 0.667-1.667v-0.667l0.667-0.333v5.333l-4-2v-13.333zM5.333 21.333h7.333v-11.333l-0.667 0.667h-0.667l-0.667-1.333v-0.667h2v-0.667h-7.333v13.333zM6 9.333l0.667-0.667 0.667 0.667h1.333l0.667 0.667h0.667l0.667 0.667-1.333 0.667 0.667 0.667 0.667-0.667h0.667l0.667 0.667-1.333 0.667-0.667 1.333h-1.333v1.333h1.313l0.687 0.667h1.333v1.333l-1.333 0.667v2.667l-1.333-1.333v-2l-0.667-0.667v-1.333l-2-2v-0.667l0.667-0.667-0.667-1.333h-0.667v-1.333z"></path>
</svg>
