<?xml version="1.0" encoding="utf-8"?>

<!DOCTYPE svg PUBLIC "-//W3C//DTD SVG 1.1//EN" "http://www.w3.org/Graphics/SVG/1.1/DTD/svg11.dtd">
<svg version="1.1" xmlns="http://www.w3.org/2000/svg" xmlns:xlink="http://www.w3.org/1999/xlink" viewBox="0 0 32 32">
<path fill="#444" d="M18.981 9.333l-5.333-2.667h-9.648v16h9.019l5.333 2.667h9.648v-16h-9.019zM12.667 8.667h-2v0.667l0.667 1.333h0.667l0.667-0.667v11.333h-7.333v-13.333h7.333v0.667zM18 13l-1.333-1.333-1.333 0.667 1.333 0.667v0.667l-1.333-0.667-0.667 0.333v1.333l0.667 0.333h1.333l1.333 2v6.667l-4-2v-13.333l4 2v2.667zM26.667 24h-7.333v-13.333h7.333v13.333zM25.333 19.333v2l-1.333 1.333v-1.333h-1.333v-0.667l1.333-1.333h0.667v0.667l0.667-0.667zM26 13.333l-0.667 0.667-0.667-0.667-0.667 0.667 0.667 0.667-1.333 1.333 0.667 2-0.667 0.667-1.333-1.333v1.333h-1.333l-0.667-0.667v-5.333h2.667l0.667-0.667h0.667l0.667 0.667h0.667l0.667 0.667zM18 18.333l-0.667 0.333v0.667l-0.667 1.667-0.667-0.333-0.667-1.667v-1.333l-0.667-0.333v-2l2 1 1.333 2zM12 16v1.333l-1.333 0.667v2.667l-1.333-1.333v-2l-0.667-0.667v-1.333h1.313l0.687 0.667h1.333zM12 12l-1.333 0.667-0.667 1.333h-1.333v1.333l-2-2v-0.667l0.667-0.667-0.667-1.333h-0.667v-1.333l0.667-0.667 0.667 0.667h1.333l0.667 0.667h0.667l0.667 0.667-1.333 0.667 0.667 0.667 0.667-0.667h0.667l0.667 0.667z"></path>
</svg>
