<?xml version="1.0" encoding="utf-8"?>

<!DOCTYPE svg PUBLIC "-//W3C//DTD SVG 1.1//EN" "http://www.w3.org/Graphics/SVG/1.1/DTD/svg11.dtd">
<svg version="1.1" xmlns="http://www.w3.org/2000/svg" xmlns:xlink="http://www.w3.org/1999/xlink" viewBox="0 0 32 32">
<path fill="#444" d="M10 12.667h1.333v6.667h-1.333v-6.667zM18 14.333c-0.921 0-1.667 0.746-1.667 1.667s0.746 1.667 1.667 1.667 1.667-0.746 1.667-1.667c0-0.921-0.746-1.667-1.667-1.667zM22 16c0 2.209-1.791 4-4 4s-4-1.791-4-4 1.791-4 4-4 4 1.791 4 4zM20.667 16c0-1.47-1.196-2.667-2.667-2.667s-2.667 1.196-2.667 2.667 1.196 2.667 2.667 2.667 2.667-1.196 2.667-2.667zM26 10v12h-20v-12h9.333v-2.667h5.333v2.667h5.333zM16.667 10h2.667v-1.333h-2.667v1.333zM23.333 16c0-2.008-1.11-3.757-2.75-4.667h-13.25v9.333h13.25c1.64-0.91 2.75-2.658 2.75-4.667z"></path>
</svg>
