<?xml version="1.0" encoding="utf-8"?>

<!DOCTYPE svg PUBLIC "-//W3C//DTD SVG 1.1//EN" "http://www.w3.org/Graphics/SVG/1.1/DTD/svg11.dtd">
<svg version="1.1" xmlns="http://www.w3.org/2000/svg" xmlns:xlink="http://www.w3.org/1999/xlink" viewBox="0 0 32 32">
<path fill="#444" d="M19.333 11.333v-3.333h-10v16h13.333v-12.667h-3.333zM16.667 20.667h-1.333v-1.333h1.333v1.333zM18.005 16.485c-0.26 0.294-0.682 0.632-1.318 0.777v0.739h-1.333v-2h0.667c0.606 0 1.314-0.348 1.314-1.329 0-0.357-0.121-0.698-0.332-0.936-0.237-0.267-0.574-0.402-1.002-0.402-0.835 0-1.333 0.498-1.333 1.333h-1.333c0-1.57 1.097-2.667 2.667-2.667 0.568 0 1.376 0.148 2 0.851 0.431 0.486 0.668 1.132 0.668 1.82-0 0.685-0.235 1.329-0.662 1.813z"></path>
</svg>
